<svg id="Livello_1" data-name="Livello 1" xmlns="http://www.w3.org/2000/svg" viewBox="0 0 143.11 143.11"><defs><style>.cls-1{fill:#e8511d;}.cls-2{fill:none;stroke:#fabb10;stroke-linecap:round;stroke-miterlimit:10;stroke-width:5.02px;}.cls-3{fill:#fff;}.cls-4{fill:#faba09;}</style></defs><title>favicon</title><rect class="cls-1" width="143.11" height="143.11" rx="25.67" ry="25.67"/><line class="cls-2" x1="26.9" y1="59.35" x2="18.26" y2="59.35"/><line class="cls-2" x1="26.63" y1="49.62" x2="9.32" y2="49.62"/><path class="cls-3" d="M100.62,37.38s7,1,9.81,2.11,4.73.07,5.23-1.06-2.26-6.42-9-8S93.84,30.91,91,35.2a9.82,9.82,0,0,0-1.2,9c.28.78,2.12,5.3,9.67,7.49s12.5,2.89,14.47,0c0,0,1-.36-2.26-.78s-10.52-2.47-10.52-2.47-3.17-9-2.61-9.46S100.62,37.38,100.62,37.38Z" transform="translate(-0.34 -0.72)"/><path class="cls-3" d="M85.62,61.68a3.23,3.23,0,0,1,2.07,1.45c.9,1.32,4.29,6.51,6.51,7.61a29.25,29.25,0,0,0,12.17,2.49c5.4,0,4.71.9,5.61-.48s1.31-3.53-.35-4.15-3.32-1.73-4.22-1.59-.83,1.12-1.59.59-6.92-3-7.13-3.08S93,51.3,91.64,50.06s-3.74-2.91-8.24-1.73-14,8.16-16.67,16.81-1.32,14,0,15.64,4.71,3.52,19.58,6.71c0,0,1.11.76,0,2.28s-5.12,12.52-5.81,13-2.15,3.11.41,3.94,6,2.77,6.37,2.84,3.32.48,3.46-.77.27-1.66-.56-2.07-3.25-.35-2.9-2.08S99,87.56,99.18,85.89,99.87,83,97,80c0,0-10-3.66-18.4-6.5,0,0,1.7-9,5.12-11.48C85,61.13,85.62,61.68,85.62,61.68Z" transform="translate(-0.34 -0.72)"/><path class="cls-3" d="M114.52,90.54a11.75,11.75,0,0,0-3,1.27l-2.25-8.37-1.32-5a2.54,2.54,0,0,1,2.93-.84l1.29,4.56Z" transform="translate(-0.34 -0.72)"/><path class="cls-4" d="M37.82,81.34s-3.59-1.5-3.59-3.86v-27s-.26-3.19,3.59-3.72,17,0,17,0,4.39-.93,5,5.19,2.8,21,2.93,23.14S62.17,79.91,59.9,80s-14.36-.4-18.09,5.32A50.7,50.7,0,0,0,36.23,98s-.8-10,2-15.3C38.22,82.7,39.05,82,37.82,81.34Z" transform="translate(-0.34 -0.72)"/><path class="cls-3" d="M114.71,69.44a14.4,14.4,0,0,1,5.34-8.38c4.37-3.06,6.36,6.41,6.63,9.79s-.93,6.84-2.13,7S115.11,76.22,114.71,69.44Z" transform="translate(-0.34 -0.72)"/><path class="cls-3" d="M78.52,94.05a15.42,15.42,0,0,0-8.81-10.63,17.53,17.53,0,0,0-7.49-1.59A22.94,22.94,0,0,0,47,87.7a23.6,23.6,0,0,0-8.37,14.14,17.94,17.94,0,0,0,.89,10,15.42,15.42,0,0,0,6,7.3,17.2,17.2,0,0,0,9.58,2.69A22.89,22.89,0,0,0,70.35,116a23.68,23.68,0,0,0,8.37-14.15A18.34,18.34,0,0,0,78.52,94.05Zm-8.84,7.79a12.8,12.8,0,0,1-4.59,7.74,12.62,12.62,0,0,1-8.33,3.22,8.78,8.78,0,0,1-7.17-3.22,9.07,9.07,0,0,1-1.83-7.74A13.6,13.6,0,0,1,60.63,90.92a8.8,8.8,0,0,1,7.17,3.2A9.16,9.16,0,0,1,69.68,101.84Z" transform="translate(-0.34 -0.72)"/><path class="cls-3" d="M64.63,101.48a5.12,5.12,0,0,1-1.56,3.83,5.19,5.19,0,0,1-3.71,1.5,4.58,4.58,0,0,1-2.11-.49,4.77,4.77,0,0,1-1.14-.81,4.43,4.43,0,0,1-1.39-3.39,4.82,4.82,0,0,1,1.59-3.86A5.58,5.58,0,0,1,60,96.9a4.87,4.87,0,0,1,3.3,1.16,3.36,3.36,0,0,1,.51.56h0A4.59,4.59,0,0,1,64.63,101.48Z" transform="translate(-0.34 -0.72)"/><path class="cls-3" d="M135.54,93.26a15.46,15.46,0,0,0-8.79-10.63A17.65,17.65,0,0,0,119.24,81a21.8,21.8,0,0,0-7.1,1.17,20.83,20.83,0,0,0-2.9,1.23,25.94,25.94,0,0,0-5.17,3.46,23.62,23.62,0,0,0-8.38,14.15,17.83,17.83,0,0,0,.9,10,15.33,15.33,0,0,0,6,7.31,17.16,17.16,0,0,0,9.57,2.69,22.85,22.85,0,0,0,15.18-5.89,23.64,23.64,0,0,0,8.38-14.15A18.18,18.18,0,0,0,135.54,93.26Zm-8.84,7.79a13.65,13.65,0,0,1-12.92,11,8.81,8.81,0,0,1-7.17-3.21,9.14,9.14,0,0,1-1.84-7.74,12.78,12.78,0,0,1,4.58-7.73,14.36,14.36,0,0,1,2.14-1.51,11.75,11.75,0,0,1,3-1.27,12.19,12.19,0,0,1,3.14-.42,8.84,8.84,0,0,1,7.17,3.2A9.14,9.14,0,0,1,126.7,101.05Z" transform="translate(-0.34 -0.72)"/><path class="cls-3" d="M119.66,100.69a5.12,5.12,0,0,1-1.56,3.83,5.2,5.2,0,0,1-3.72,1.5,4.59,4.59,0,0,1-3.24-1.3,4.47,4.47,0,0,1-1.39-3.4,4.78,4.78,0,0,1,1.6-3.85,5.86,5.86,0,0,1,1.41-.89l-1.27-4.77a11.75,11.75,0,0,1,3-1.27l1.61,5.68a4.61,4.61,0,0,1,2.2,1A4.27,4.27,0,0,1,119.66,100.69Z" transform="translate(-0.34 -0.72)"/></svg>